<svg width="166" height="192" viewBox="0 0 166 192" fill="none" xmlns="http://www.w3.org/2000/svg">
<path d="M82.9606 0L165.921 52V140L82.9606 192L0 140V52L82.9606 0Z" fill="white"/>
<path d="M155.181 134.5V130.883C154.074 132.073 152.913 133.282 151.698 134.5C149.502 136.703 147.133 138.934 144.602 141.131L155.181 134.5Z" fill="#516372"/>
<path d="M83.2852 138.944C85.4203 146.245 88.6693 152.371 92.2279 157.476C112.301 157.178 129.737 146.086 142.523 134.5C147.48 130.008 151.739 125.442 155.181 121.402V105.183V88.9648C152.006 94.2671 148.035 99.7966 143.078 105.183C139.938 108.595 136.403 111.95 132.424 115.154C118.615 126.267 104.145 131.726 92.7733 134.4C92.6297 134.434 92.4866 134.467 92.344 134.5C88.7223 135.335 85.4241 135.888 82.5735 136.252C82.7901 137.15 83.0068 138.047 83.2852 138.944Z" fill="#516372"/>
<path d="M116.498 158.746C110.367 161.173 103.825 162.861 96.9329 163.448C98.4721 165.178 100.017 166.74 101.517 168.137L116.498 158.746Z" fill="#516372"/>
<path d="M53.3018 78.958C50.7036 85.1186 47.6937 94.1604 46.4413 105.183C46.3885 105.648 46.3389 106.116 46.2925 106.587C45.6044 113.583 45.6392 121.339 46.9273 129.634C47.1841 131.291 47.4819 132.913 47.8164 134.5C50.6138 147.77 55.9771 158.558 61.3878 166.71L82.5906 180L96.0674 171.553C89.0519 164.736 81.3999 154.658 77.3135 140.74C76.6908 138.626 76.1861 136.544 75.7852 134.5C73.5528 123.12 74.5392 112.94 76.2946 105.183C76.9967 102.081 77.8218 99.3667 78.6131 97.1184C74.0344 91.7352 65.7101 83.9389 53.3018 78.958Z" fill="#516372"/>
<path d="M44.792 76.1402C37.3973 74.3458 30.4659 74.0674 24.2772 74.6242C18.8834 84.2298 16.7289 94.8024 16.4905 105.183C16.2529 115.528 17.9182 125.683 20.1769 134.5C20.8768 137.232 21.6338 139.836 22.4087 142.278L50.2008 159.698C46.5825 152.525 43.4194 144.112 41.5243 134.5C41.2696 133.208 41.0378 131.895 40.8309 130.56L40.8313 130.591C39.4054 121.415 39.4147 112.859 40.2315 105.183C41.4886 93.3691 44.6586 83.6393 47.4533 76.9445C47.0735 76.8398 46.7047 76.7184 46.3354 76.5968C45.832 76.4312 45.3275 76.2651 44.792 76.1402Z" fill="#516372"/>
<path d="M10 134.5L14.3412 137.221C14.1032 136.328 13.8708 135.421 13.6452 134.5C11.4731 125.634 9.93819 115.544 10.1918 105.183C10.4331 95.3305 12.2917 85.2325 16.7577 75.7091C14.3308 76.2108 12.0701 76.8141 10 77.4629V105.183V134.5Z" fill="#516372"/>
<path d="M111.784 80.2549C105.071 71.345 91.9189 57.4549 71.0318 49.3492C56.8162 43.8461 43.4501 42.7194 32.6903 43.2776L10 57.5V70.994C19.4328 68.2931 32.062 66.6675 46.246 70.1083H46.2136C65.0898 74.7173 77.2506 85.9474 83.3775 93.094C90.3722 91.7946 101.325 88.4842 111.784 80.2549Z" fill="#516372"/>
<path d="M118.438 74.2552C123.698 68.7482 127.38 62.8702 130.011 57.2395C116.053 33.7524 87.0789 24.5262 68.3219 20.9436L42.4923 37.1337C51.8029 37.5834 62.2931 39.3866 73.2609 43.6266C95.2907 52.1347 109.216 66.7373 116.457 76.2352C116.672 76.0202 116.891 75.8052 117.11 75.5891L117.111 75.5878C117.555 75.1513 118.003 74.7101 118.438 74.2552Z" fill="#516372"/>
<path d="M82.1719 12.875C81.8422 12.875 81.5131 12.8771 81.1845 12.8813L76.0163 16.1208C94.4303 20.4237 118.628 29.7963 132.826 50.1539C133.476 48.1959 134.008 46.3017 134.442 44.5006L84.0187 12.8952C83.4047 12.8817 82.7891 12.875 82.1719 12.875Z" fill="#516372"/>
<path d="M81.3682 130.19C92.4445 128.828 111.073 124.404 128.525 110.358C130.474 108.792 132.309 107.187 134.036 105.554C134.167 105.431 134.297 105.307 134.427 105.183C144.757 95.3066 151.202 84.4859 155.181 75.5257V57.5L139.985 47.9748C137.499 57.2537 132.584 68.4248 122.957 78.4943C109.526 92.5396 93.7147 97.4587 84.4626 99.1912C83.8583 100.908 83.2357 102.919 82.6761 105.183C81.0575 111.731 79.9656 120.397 81.3682 130.19Z" fill="#516372"/>
<path d="M40.8313 130.591L40.8309 130.56C41.0378 131.895 41.2696 133.208 41.5243 134.5H47.8164C47.4819 132.913 47.1841 131.291 46.9273 129.634C45.6392 121.339 45.6044 113.583 46.2925 106.587C46.3389 106.116 46.3885 105.648 46.4413 105.183H40.2315C39.4147 112.859 39.4054 121.415 40.8313 130.591Z" fill="#516372"/>
<path d="M16.4905 105.183H10.1918C9.93819 115.544 11.4731 125.634 13.6452 134.5H20.1769C17.9182 125.683 16.2529 115.528 16.4905 105.183Z" fill="#516372"/>
<path d="M128.525 110.358C111.073 124.404 92.4445 128.828 81.3682 130.19C79.9656 120.397 81.0575 111.731 82.6761 105.183H76.2946C74.5392 112.94 73.5528 123.12 75.7852 134.5H92.344C92.4866 134.467 92.6297 134.434 92.7733 134.4C104.145 131.726 118.615 126.267 132.424 115.154C136.403 111.95 139.938 108.595 143.078 105.183H134.427C134.297 105.307 134.167 105.431 134.036 105.554C132.309 107.187 130.474 108.792 128.525 110.358Z" fill="#516372"/>
<path fill-rule="evenodd" clip-rule="evenodd" d="M82.5906 12L84.0187 12.8952C83.4047 12.8817 82.7891 12.875 82.1719 12.875C81.8422 12.875 81.5131 12.8771 81.1845 12.8813L82.5906 12ZM132.826 50.1539C133.476 48.1959 134.008 46.3017 134.442 44.5006L139.985 47.9748C137.499 57.2537 132.584 68.4248 122.957 78.4943C109.526 92.5396 93.7147 97.4587 84.4626 99.1912C83.8583 100.908 83.2357 102.919 82.6761 105.183H76.2946C76.9967 102.081 77.8218 99.3667 78.6131 97.1184C74.0344 91.7352 65.7101 83.9389 53.3018 78.958C50.7036 85.1186 47.6937 94.1604 46.4413 105.183H40.2315C41.4886 93.3691 44.6586 83.6393 47.4533 76.9445C47.0735 76.8398 46.7047 76.7184 46.3354 76.5968C45.832 76.4312 45.3275 76.2651 44.792 76.1402C37.3973 74.3458 30.4659 74.0674 24.2772 74.6242C18.8834 84.2298 16.7289 94.8024 16.4905 105.183H10.1918C10.4331 95.3305 12.2917 85.2325 16.7577 75.7091C14.3308 76.2108 12.0701 76.8141 10 77.4629V70.994C19.4328 68.2931 32.062 66.6675 46.246 70.1083H46.2136C65.0898 74.7173 77.2506 85.9474 83.3775 93.094C90.3722 91.7946 101.325 88.4842 111.784 80.2549C105.071 71.345 91.9189 57.4549 71.0318 49.3492C56.8162 43.8461 43.4501 42.7194 32.6903 43.2776L42.4923 37.1337C51.8029 37.5834 62.2931 39.3866 73.2609 43.6266C95.2907 52.1347 109.216 66.7373 116.457 76.2352C116.672 76.0202 116.891 75.8052 117.11 75.5891L117.111 75.5878C117.555 75.1513 118.003 74.7101 118.438 74.2552C123.698 68.7482 127.38 62.8702 130.011 57.2395C116.053 33.7524 87.0789 24.5262 68.3219 20.9436L76.0163 16.1208C94.4303 20.4237 118.628 29.7963 132.826 50.1539ZM143.078 105.183H134.427C144.757 95.3066 151.202 84.4859 155.181 75.5257V88.9648C152.006 94.2671 148.035 99.7966 143.078 105.183ZM75.7852 134.5H92.344C88.7223 135.335 85.4241 135.888 82.5735 136.252C82.7901 137.15 83.0068 138.047 83.2852 138.944C85.4203 146.245 88.6693 152.371 92.2279 157.476C112.301 157.178 129.737 146.086 142.523 134.5H151.698C149.502 136.703 147.133 138.934 144.602 141.131L116.498 158.746C110.367 161.173 103.825 162.861 96.9329 163.448C98.4721 165.178 100.017 166.74 101.517 168.137L96.0674 171.553C89.0519 164.736 81.3999 154.658 77.3135 140.74C76.6908 138.626 76.1861 136.544 75.7852 134.5ZM41.5243 134.5C43.4194 144.112 46.5825 152.525 50.2008 159.698L61.3878 166.71C55.9771 158.558 50.6138 147.77 47.8164 134.5H41.5243ZM13.6452 134.5H20.1769C20.8768 137.232 21.6338 139.836 22.4087 142.278L14.3412 137.221C14.1032 136.328 13.8708 135.421 13.6452 134.5Z" fill="white"/>
<path d="M155.181 130.883V121.402C151.739 125.442 147.48 130.008 142.523 134.5H151.698C152.913 133.282 154.074 132.073 155.181 130.883Z" fill="#516372"/>
<path d="M16 130.293V113.87H22.5237C24.8946 113.87 26.08 115.063 26.08 117.449V122.183C26.08 124.569 24.8946 125.762 22.5237 125.762H18.6503V130.293H16ZM18.6503 123.452H22.3878C23.0825 123.452 23.4298 123.105 23.4298 122.41V117.223C23.4298 116.528 23.0825 116.181 22.3878 116.181H18.6503V123.452Z" fill="white"/>
<path d="M28.0262 114.278L28.298 113.87H30.5858L33.5758 123.452H33.9156L36.9057 113.87H39.1935L39.4653 114.278L34.278 130.293H31.9902L31.7184 129.885L33.1455 125.762H31.7637L28.0262 114.278Z" fill="white"/>
<path d="M40.3254 114.278L40.5972 113.87H42.885L45.8751 123.452H46.2148L49.2049 113.87H51.4927L51.7645 114.278L48.0496 125.762H44.0629L40.3254 114.278Z" fill="white"/>
<path d="M53.7119 122.183V117.449C53.7119 115.063 54.9049 113.87 57.2908 113.87H60.4621C62.833 113.87 64.0184 115.063 64.0184 117.449V122.183C64.0184 124.569 62.833 125.762 60.4621 125.762H57.2908C54.9049 125.762 53.7119 124.569 53.7119 122.183ZM56.3621 122.41C56.3621 123.105 56.7094 123.452 57.4041 123.452H60.3262C61.0208 123.452 61.3682 123.105 61.3682 122.41V117.223C61.3682 116.528 61.0208 116.181 60.3262 116.181H57.4041C56.7094 116.181 56.3621 116.528 56.3621 117.223V122.41Z" fill="white"/>
<path d="M67.1414 121.821V109H69.7916V122.093C69.7916 123.074 70.29 123.603 71.2866 123.678V125.966C68.5231 125.966 67.1414 124.584 67.1414 121.821Z" fill="white"/>
<path d="M73.7555 121.821V109H76.4058V122.093C76.4058 123.074 76.9041 123.603 77.9008 123.678V125.966C75.1373 125.966 73.7555 124.584 73.7555 121.821Z" fill="white"/>
<path d="M80.279 122.183V117.449C80.279 115.063 81.472 113.87 83.858 113.87H86.8028C89.1736 113.87 90.3591 115.063 90.3591 117.449V120.802H82.9293V122.41C82.9293 123.105 83.2766 123.452 83.9713 123.452H89.9061V124.879L88.7055 125.762H83.858C81.472 125.762 80.279 124.569 80.279 122.183ZM82.9293 118.74H87.7088V117.223C87.7088 116.528 87.3615 116.181 86.6668 116.181H83.9713C83.2766 116.181 82.9293 116.528 82.9293 117.223V118.74Z" fill="white"/>
<path d="M92.3094 114.278L92.5813 113.87H94.8691L97.8591 123.452H98.1989L101.189 113.87H103.477L103.749 114.278L98.5613 130.293H96.2735L96.0017 129.885L97.4288 125.762H96.047L92.3094 114.278Z" fill="white"/>
<path d="M105.696 122.183V117.449C105.696 115.063 106.889 113.87 109.275 113.87H113.126V109H115.776V125.762H109.275C106.889 125.762 105.696 124.569 105.696 122.183ZM108.346 122.41C108.346 123.105 108.694 123.452 109.388 123.452H113.126V116.181H109.388C108.694 116.181 108.346 116.528 108.346 117.223V122.41Z" fill="white"/>
<path d="M122.117 125.762C119.731 125.762 118.538 124.584 118.538 122.229C118.538 119.873 119.731 118.695 122.117 118.695H125.605V117.223C125.605 116.528 125.258 116.181 124.563 116.181H119.761V114.754L120.939 113.87H124.699C127.07 113.87 128.255 115.063 128.255 117.449V125.762H122.117ZM121.188 122.41C121.188 123.105 121.535 123.452 122.23 123.452H125.605V120.756H122.23C121.535 120.756 121.188 121.096 121.188 121.776V122.41Z" fill="white"/>
<path d="M131.469 122.183V110.133H134.119V113.87H138.174V116.181H134.119V122.41C134.119 123.105 134.466 123.452 135.161 123.452H138.4V124.879L137.2 125.762H135.048C132.662 125.762 131.469 124.569 131.469 122.183Z" fill="white"/>
<path d="M143.861 125.762C141.475 125.762 140.282 124.584 140.282 122.229C140.282 119.873 141.475 118.695 143.861 118.695H147.35V117.223C147.35 116.528 147.002 116.181 146.308 116.181H141.506V114.754L142.683 113.87H146.444C148.815 113.87 150 115.063 150 117.449V125.762H143.861ZM142.933 122.41C142.933 123.105 143.28 123.452 143.975 123.452H147.35V120.756H143.975C143.28 120.756 142.933 121.096 142.933 121.776V122.41Z" fill="white"/>
<path d="M93.4026 180.789L91.7998 178.27L92.1981 178.017L92.6638 178.749L93.2458 178.378C93.6021 178.152 93.8944 178.218 94.1225 178.576L94.9174 179.825L94.5191 180.079L93.7026 178.795C93.6361 178.691 93.5507 178.672 93.4463 178.739L92.8847 179.096L93.8008 180.536L93.4026 180.789ZM95.0579 178.98L93.9057 177.169L94.304 176.916L94.6613 177.478L95.2706 177.09L95.4916 177.437L94.8822 177.825L95.4778 178.761C95.5443 178.865 95.6297 178.884 95.7341 178.818L96.2208 178.508L96.3573 178.723L96.2613 178.97L95.938 179.176C95.5794 179.404 95.2861 179.339 95.0579 178.98ZM96.4641 178.086L95.3118 176.275L95.7101 176.021L96.0675 176.583L96.6768 176.195L96.8977 176.543L96.2884 176.93L96.884 177.866C96.9504 177.971 97.0358 177.99 97.1402 177.923L97.627 177.614L97.7635 177.828L97.6675 178.076L97.3441 178.281C96.9856 178.509 96.6922 178.444 96.4641 178.086ZM98.6592 178.401L97.089 175.933L98.0694 175.309C98.4257 175.083 98.7179 175.149 98.946 175.507L99.3987 176.219C99.6268 176.577 99.5627 176.87 99.2064 177.096L98.6243 177.467L99.0575 178.148L98.6592 178.401ZM98.4034 177.12L98.9651 176.762C99.0695 176.696 99.0885 176.61 99.0221 176.506L98.5261 175.726C98.4597 175.622 98.3742 175.603 98.2699 175.67L97.7082 176.027L98.4034 177.12ZM100.075 176.357L99.9384 176.143L100.725 175.643C100.829 175.576 100.846 175.487 100.775 175.376C100.702 175.26 100.617 175.222 100.52 175.261L100.1 175.442C99.78 175.576 99.5319 175.504 99.3558 175.227C99.1334 174.878 99.2015 174.589 99.56 174.361L100.101 174.016L100.366 174.034L100.503 174.249L99.798 174.697C99.6913 174.765 99.6734 174.855 99.7441 174.966C99.8149 175.077 99.9007 175.112 100.002 175.07L100.422 174.889C100.738 174.754 100.986 174.828 101.165 175.109C101.389 175.461 101.32 175.752 100.959 175.981L100.34 176.375L100.075 176.357ZM101.929 175.364L101.647 174.922L102.09 174.64L102.372 175.083L101.929 175.364ZM101.076 174.023L100.794 173.58L101.237 173.299L101.518 173.741L101.076 174.023ZM102.721 174.951L102.023 171.742L102.434 171.652L103.136 174.859L102.721 174.951ZM103.944 174.173L103.246 170.964L103.657 170.874L104.359 174.081L103.944 174.173ZM105.916 173.784L104.346 171.316L105.326 170.692C105.683 170.465 105.975 170.531 106.203 170.89L106.656 171.601C106.884 171.96 106.82 172.252 106.463 172.479L105.881 172.85L106.314 173.53L105.916 173.784ZM105.66 172.502L106.222 172.145C106.326 172.079 106.345 171.993 106.279 171.889L105.783 171.109C105.717 171.005 105.631 170.986 105.527 171.052L104.965 171.41L105.66 172.502ZM106.192 170.227L106.194 170.14L106.538 169.921L107.903 171.075L107.954 171.043L107.488 169.317L107.831 169.098L107.911 169.133L108.663 172.036L108.319 172.255L108.239 172.22L108.06 171.464L107.852 171.596L106.192 170.227ZM108.04 169.051L108.042 168.964L108.386 168.745L109.752 169.899L109.803 169.867L109.336 168.141L109.68 167.922L109.759 167.957L110.299 170.039L109.7 170.42L108.04 169.051ZM110.808 168.959L110.355 168.248C110.127 167.889 110.192 167.596 110.551 167.368L111.028 167.065C111.384 166.838 111.676 166.904 111.904 167.262L112.357 167.974C112.585 168.332 112.521 168.625 112.165 168.852L111.688 169.155C111.329 169.383 111.036 169.318 110.808 168.959ZM111.228 168.74C111.294 168.844 111.38 168.863 111.484 168.797L111.923 168.517C112.028 168.451 112.047 168.366 111.98 168.261L111.484 167.482C111.418 167.377 111.332 167.358 111.228 167.425L110.789 167.704C110.685 167.771 110.666 167.856 110.732 167.96L111.228 168.74ZM112.792 167.621L111.566 165.694L111.964 165.441L113.216 167.408C113.31 167.556 113.435 167.587 113.592 167.504L113.811 167.847C113.396 168.112 113.056 168.036 112.792 167.621ZM113.785 166.988L112.56 165.062L112.958 164.808L114.21 166.776C114.304 166.923 114.429 166.955 114.586 166.871L114.805 167.215C114.389 167.479 114.05 167.404 113.785 166.988ZM114.8 166.419L114.348 165.708C114.12 165.349 114.185 165.056 114.543 164.828L114.986 164.546C115.342 164.319 115.634 164.385 115.863 164.744L116.183 165.248L115.067 165.958L115.22 166.2C115.287 166.304 115.372 166.323 115.477 166.257L116.368 165.689L116.505 165.904L116.409 166.151L115.68 166.615C115.322 166.843 115.029 166.778 114.8 166.419ZM114.87 165.648L115.588 165.191L115.443 164.963C115.376 164.859 115.291 164.84 115.186 164.906L114.781 165.164C114.677 165.23 114.658 165.316 114.724 165.42L114.87 165.648ZM115.852 164.081L115.854 163.993L116.198 163.775L117.564 164.929L117.615 164.896L117.148 163.17L117.492 162.952L117.572 162.987L118.323 165.89L117.979 166.108L117.9 166.073L117.72 165.317L117.512 165.449L115.852 164.081ZM118.62 163.989L118.167 163.277C117.939 162.919 118.004 162.625 118.363 162.397L118.942 162.029L118.476 161.297L118.874 161.044L120.477 163.563L119.5 164.184C119.142 164.413 118.848 164.347 118.62 163.989ZM119.04 163.769C119.106 163.874 119.192 163.893 119.296 163.826L119.858 163.469L119.163 162.376L118.601 162.734C118.497 162.8 118.478 162.886 118.544 162.99L119.04 163.769ZM121.43 162.957C121.071 163.185 120.779 163.122 120.554 162.768C120.329 162.414 120.396 162.123 120.754 161.895L121.278 161.561L121.138 161.34C121.071 161.235 120.986 161.216 120.881 161.283L120.16 161.742L120.023 161.527L120.116 161.282L120.681 160.923C121.037 160.696 121.329 160.762 121.558 161.12L122.352 162.37L121.43 162.957ZM120.97 162.542C121.036 162.646 121.122 162.665 121.226 162.599L121.733 162.276L121.475 161.871L120.968 162.193C120.864 162.26 120.844 162.344 120.909 162.446L120.97 162.542ZM122.493 161.525L121.341 159.714L121.739 159.46L122.097 160.022L122.706 159.634L122.927 159.981L122.317 160.369L122.913 161.305C122.979 161.41 123.065 161.429 123.169 161.362L123.656 161.052L123.793 161.267L123.697 161.514L123.373 161.72C123.015 161.948 122.721 161.883 122.493 161.525ZM124.698 160.877C124.339 161.106 124.047 161.043 123.822 160.689C123.597 160.335 123.663 160.044 124.022 159.815L124.546 159.482L124.405 159.261C124.339 159.156 124.254 159.137 124.149 159.204L123.427 159.663L123.291 159.448L123.384 159.203L123.949 158.843C124.305 158.617 124.597 158.683 124.825 159.041L125.62 160.291L124.698 160.877ZM124.238 160.462C124.304 160.567 124.389 160.586 124.494 160.519L125.001 160.197L124.743 159.792L124.236 160.114C124.132 160.181 124.112 160.265 124.177 160.367L124.238 160.462ZM126.103 159.983L125.822 159.541L126.264 159.259L126.546 159.702L126.103 159.983ZM127.027 159.395L126.031 157.829C126.019 157.63 126.128 157.456 126.36 157.309L126.717 157.082L126.982 157.1L127.119 157.314L126.673 157.598C126.596 157.647 126.553 157.701 126.546 157.76L127.426 159.142L127.027 159.395ZM128.008 158.016L127.555 157.304C127.327 156.946 127.392 156.652 127.751 156.424L128.193 156.143C128.55 155.916 128.842 155.982 129.07 156.341L129.39 156.844L128.274 157.555L128.428 157.796C128.494 157.901 128.58 157.92 128.684 157.853L129.576 157.286L129.712 157.5L129.616 157.748L128.888 158.211C128.529 158.44 128.236 158.374 128.008 158.016ZM128.077 157.245L128.795 156.788L128.65 156.56C128.584 156.456 128.498 156.437 128.394 156.503L127.989 156.761C127.884 156.827 127.865 156.913 127.932 157.017L128.077 157.245ZM130.791 157C130.432 157.229 130.141 157.166 129.915 156.812C129.69 156.458 129.757 156.167 130.115 155.938L130.64 155.605L130.499 155.384C130.432 155.279 130.347 155.26 130.243 155.327L129.521 155.786L129.384 155.571L129.477 155.326L130.042 154.966C130.398 154.74 130.691 154.806 130.919 155.164L131.714 156.414L130.791 157ZM130.331 156.585C130.397 156.69 130.483 156.709 130.587 156.642L131.094 156.32L130.837 155.915L130.329 156.237C130.225 156.304 130.205 156.388 130.27 156.49L130.331 156.585ZM131.841 155.577L131.388 154.866C131.16 154.507 131.225 154.214 131.584 153.986L132.162 153.617L131.697 152.886L132.095 152.632L133.698 155.151L132.721 155.773C132.362 156.001 132.069 155.936 131.841 155.577ZM132.261 155.358C132.327 155.462 132.412 155.481 132.517 155.415L133.078 155.057L132.383 153.965L131.822 154.322C131.717 154.388 131.698 154.474 131.765 154.578L132.261 155.358ZM133.852 154.297L132.7 152.486L133.098 152.233L133.456 152.795L134.065 152.407L134.286 152.754L133.677 153.142L134.272 154.078C134.339 154.182 134.424 154.201 134.528 154.135L135.015 153.825L135.152 154.04L135.056 154.287L134.732 154.493C134.374 154.721 134.08 154.656 133.852 154.297ZM135.614 153.932L134.011 151.413L134.41 151.159L134.875 151.891L135.457 151.521C135.814 151.294 136.106 151.36 136.334 151.719L137.129 152.968L136.731 153.221L135.914 151.938C135.848 151.834 135.762 151.815 135.658 151.881L135.096 152.238L136.012 153.678L135.614 153.932ZM137.256 152.132L136.803 151.42C136.575 151.062 136.64 150.768 136.999 150.54L137.441 150.259C137.798 150.032 138.09 150.098 138.318 150.456L138.639 150.96L137.522 151.671L137.676 151.912C137.742 152.017 137.828 152.036 137.932 151.969L138.824 151.402L138.96 151.616L138.864 151.864L138.136 152.327C137.777 152.555 137.484 152.49 137.256 152.132ZM137.325 151.361L138.043 150.904L137.898 150.676C137.832 150.571 137.746 150.552 137.642 150.619L137.237 150.876C137.132 150.943 137.113 151.028 137.18 151.133L137.325 151.361ZM139.227 150.877L138.775 150.166C138.546 149.807 138.612 149.514 138.97 149.286L139.549 148.918L139.083 148.186L139.481 147.932L141.084 150.451L140.107 151.073C139.749 151.301 139.455 151.236 139.227 150.877ZM139.647 150.658C139.714 150.762 139.799 150.781 139.903 150.715L140.465 150.358L139.77 149.265L139.208 149.622C139.104 149.689 139.085 149.774 139.151 149.878L139.647 150.658ZM141.225 149.606L140.772 148.895C140.544 148.536 140.61 148.243 140.968 148.015L141.445 147.711C141.801 147.485 142.093 147.551 142.321 147.909L142.774 148.621C143.002 148.979 142.938 149.272 142.582 149.499L142.105 149.802C141.747 150.03 141.453 149.965 141.225 149.606ZM141.645 149.387C141.711 149.491 141.797 149.51 141.901 149.444L142.34 149.164C142.445 149.098 142.464 149.013 142.397 148.908L141.901 148.129C141.835 148.024 141.75 148.005 141.645 148.072L141.206 148.351C141.102 148.417 141.083 148.503 141.149 148.607L141.645 149.387ZM143.23 148.331L142.777 147.619C142.549 147.261 142.614 146.967 142.973 146.739L143.616 146.33L143.881 146.348L144.017 146.562L143.211 147.076C143.106 147.142 143.087 147.227 143.154 147.332L143.65 148.111C143.716 148.216 143.801 148.235 143.906 148.168L144.713 147.655L144.849 147.87L144.753 148.117L144.11 148.526C143.751 148.755 143.458 148.689 143.23 148.331ZM145.195 147.649L145.059 147.435L145.845 146.934C145.949 146.868 145.966 146.779 145.896 146.668C145.822 146.552 145.737 146.514 145.641 146.553L145.22 146.734C144.9 146.868 144.652 146.796 144.476 146.519C144.254 146.17 144.322 145.881 144.68 145.653L145.222 145.308L145.487 145.326L145.623 145.541L144.918 145.989C144.812 146.057 144.794 146.146 144.864 146.258C144.935 146.369 145.021 146.404 145.122 146.362L145.542 146.18C145.858 146.046 146.106 146.12 146.285 146.401C146.509 146.753 146.44 147.043 146.08 147.273L145.46 147.667L145.195 147.649ZM147.049 146.656L146.768 146.213L147.21 145.932L147.492 146.374L147.049 146.656ZM146.643 143.969L146.385 143.564L146.804 143.297L147.061 143.703L146.643 143.969ZM147.987 146.059L146.85 144.272L147.248 144.019L148.385 145.806L147.987 146.059ZM148.525 144.961L148.073 144.25C147.844 143.891 147.91 143.598 148.268 143.37L148.745 143.067C149.101 142.84 149.393 142.906 149.621 143.265L150.074 143.976C150.302 144.335 150.238 144.627 149.882 144.854L149.405 145.157C149.047 145.385 148.753 145.32 148.525 144.961ZM148.945 144.742C149.012 144.846 149.097 144.865 149.201 144.799L149.64 144.52C149.745 144.453 149.764 144.368 149.697 144.263L149.201 143.484C149.135 143.379 149.05 143.361 148.945 143.427L148.506 143.706C148.402 143.773 148.383 143.858 148.449 143.963L148.945 144.742ZM150.753 144.39L150.055 141.181L150.467 141.091L151.168 144.298L150.753 144.39Z" fill="#516372"/>
</svg>
